<?xml version="1.0" standalone="no"?>
<!DOCTYPE svg PUBLIC "-//W3C//DTD SVG 20010904//EN"
 "http://www.w3.org/TR/2001/REC-SVG-20010904/DTD/svg10.dtd">
<svg version="1.0" xmlns="http://www.w3.org/2000/svg"
 width="236.000000pt" height="236.000000pt" viewBox="0 0 236.000000 236.000000"
 preserveAspectRatio="xMidYMid meet">
<metadata>
Created by potrace 1.14, written by Peter Selinger 2001-2017
</metadata>
<g transform="translate(0.000000,236.000000) scale(0.100000,-0.100000)"
fill="#000000" stroke="none">
<path d="M1080 2318 c-433 -47 -786 -372 -866 -794 -16 -89 -21 -247 -10 -314
15 -84 29 -146 36 -160 7 -12 28 -15 107 -14 54 1 101 2 105 3 3 1 -2 23 -12
49 -36 95 -53 263 -35 362 31 180 101 317 224 441 108 108 221 170 395 216 12
3 76 7 142 9 145 3 236 -16 358 -77 99 -49 161 -95 226 -166 406 -444 198
-1143 -385 -1293 -168 -44 -373 -21 -530 57 -58 29 -175 110 -175 122 0 4 217
7 483 6 265 0 487 0 492 2 6 2 10 128 9 353 l0 349 109 3 110 3 -109 83 -109
82 -1 119 c-1 94 -5 125 -18 145 -22 34 -60 43 -102 23 -36 -17 -42 -33 -46
-109 l-3 -48 -165 126 c-91 69 -170 128 -177 131 -11 4 -133 -89 -134 -103 0
-6 31 -31 301 -234 91 -69 168 -129 172 -135 4 -5 8 -148 8 -317 0 -286 -1
-308 -17 -309 -22 -1 -308 -1 -345 0 l-28 1 0 143 c0 132 -2 144 -23 170 -47
58 -129 50 -160 -16 -14 -28 -16 -61 -14 -166 l2 -131 -65 -1 c-36 0 -172 0
-303 0 -130 1 -237 -1 -237 -4 0 -3 10 -25 21 -48 86 -168 248 -326 429 -417
63 -32 200 -83 200 -75 0 3 11 0 25 -5 75 -28 277 -31 416 -5 61 11 169 49
234 82 459 231 667 769 481 1242 -51 128 -139 258 -240 354 -64 61 -196 149
-278 186 -147 65 -342 96 -498 79z"/>
<path d="M888 1843 c-18 -15 -48 -42 -66 -58 l-33 -31 43 -31 c24 -17 54 -40
68 -52 35 -29 33 -28 152 -119 l108 -82 142 1 c132 0 141 1 121 15 -12 9 -116
89 -230 178 -114 89 -222 172 -240 184 l-31 22 -34 -27z"/>
<path d="M584 1594 c-65 -53 -126 -102 -134 -110 -12 -12 23 -14 260 -14 l275
0 -39 35 c-21 19 -41 35 -45 35 -3 0 -17 10 -31 23 -14 12 -45 38 -70 57 -25
19 -54 43 -64 52 -11 10 -23 18 -26 18 -4 0 -60 -43 -126 -96z"/>
<path d="M220 258 c0 -13 8 -18 28 -18 l27 0 -2 -67 c-3 -81 0 -93 24 -87 16
5 19 15 19 77 -1 71 -1 72 27 75 17 2 27 9 27 20 0 14 -11 17 -75 17 -65 0
-75 -2 -75 -17z"/>
<path d="M394 265 c-3 -6 -4 -49 -2 -95 2 -69 6 -84 20 -86 9 -1 18 3 20 9 4
10 3 161 -1 178 -2 11 -33 6 -37 -6z"/>
<path d="M476 273 c-3 -3 -6 -48 -6 -99 0 -82 2 -92 18 -90 13 2 18 15 20 60
l3 57 45 -57 c45 -59 73 -76 75 -46 1 10 2 52 3 94 1 65 -2 78 -16 81 -21 6
-25 -5 -23 -65 0 -27 0 -48 -1 -48 -1 0 -21 24 -44 53 -44 55 -63 71 -74 60z"/>
<path d="M662 195 c0 -112 -1 -111 61 -111 49 0 72 10 61 28 -3 4 -21 8 -40 8
-29 0 -34 3 -34 24 0 20 4 24 22 21 19 -4 37 8 38 26 0 3 -12 6 -26 5 -19 -1
-29 5 -35 22 -8 21 -6 22 35 22 31 0 43 4 43 15 0 18 3 17 -68 19 l-56 2 -1
-81z"/>
<path d="M809 244 c-3 -134 0 -161 16 -161 17 0 26 27 24 67 -4 53 2 53 26 3
30 -61 45 -61 78 1 l22 41 5 -55 c4 -40 9 -55 20 -55 12 0 15 17 15 95 0 86
-2 95 -19 95 -12 0 -28 -18 -48 -54 -16 -30 -31 -57 -33 -59 -2 -2 -16 21 -31
51 -19 39 -34 57 -51 60 -20 4 -23 0 -24 -29z"/>
<path d="M1040 268 c0 -6 14 -33 30 -60 19 -31 30 -62 30 -86 0 -31 4 -38 20
-39 15 -1 20 5 22 25 0 15 2 32 2 37 2 13 28 63 49 96 15 22 15 28 4 32 -20 8
-35 -5 -56 -49 l-20 -39 -15 37 c-9 20 -21 40 -28 45 -20 12 -38 12 -38 1z"/>
<path d="M1268 273 c-9 -2 -21 -16 -26 -31 -5 -15 -21 -57 -35 -95 -25 -65
-25 -67 -6 -67 11 0 24 11 31 25 15 33 75 33 88 1 4 -12 17 -22 29 -23 12 -1
21 0 21 2 0 15 -64 172 -73 181 -7 6 -20 9 -29 7z m24 -73 c0 -11 1 -26 2 -32
1 -7 -7 -13 -16 -13 -20 0 -21 4 -12 40 7 30 23 33 26 5z"/>
<path d="M1356 273 c-3 -3 10 -33 28 -67 21 -37 33 -71 31 -88 -2 -17 2 -29
12 -32 22 -9 29 -1 31 37 2 32 28 93 52 122 6 8 9 18 6 24 -12 19 -44 -2 -62
-41 l-18 -40 -20 40 c-17 37 -47 58 -60 45z"/>
<path d="M1607 264 c-84 -45 -53 -179 42 -179 40 0 75 20 65 37 -3 5 -23 7
-44 3 -33 -6 -41 -3 -54 17 -16 25 -14 64 4 82 6 6 30 11 52 11 46 0 62 19 26
31 -40 13 -63 12 -91 -2z"/>
<path d="M1793 272 c-59 -9 -84 -108 -40 -156 68 -76 192 -8 165 91 -13 50
-63 76 -125 65z m69 -49 c23 -21 23 -55 0 -83 -27 -33 -78 -20 -87 21 -13 60
44 101 87 62z"/>
<path d="M1953 273 c-9 -3 -13 -31 -13 -93 0 -79 2 -88 20 -93 18 -5 20 0 20
56 l0 62 30 -52 c35 -60 49 -61 75 -2 10 21 21 39 25 39 4 0 6 -22 5 -49 -2
-37 2 -51 13 -56 8 -3 17 -3 19 -1 9 8 10 161 1 178 -13 28 -42 10 -68 -43
-14 -28 -28 -53 -31 -55 -4 -2 -18 20 -32 50 -25 53 -41 67 -64 59z"/>
<path d="M1521 121 c-15 -10 -8 -41 9 -41 15 0 25 29 14 40 -5 5 -15 5 -23 1z"/>
</g>
</svg>
